# xmcd
#
# Track frame offsets:
#	150
#	15107
#	25532
#	35717
#	46000
#	57947
#	70875
#	81792
#	93625
#	110737
#	121029
#	130275
#
# Disc length: 1894 seconds
#
# Revision: 0
# Processed by: cddbd v1.5.1PL0 Copyright (c) Steve Scherf et al.
# Submitted via: dBpowerAMP V4.0
#
DISCID=9107640c
DTITLE=Kings Of Rhythm Band - Ike and Tina Turner's Dance
DYEAR=1961
DGENRE=R&B
TTITLE0=The Gulley
TTITLE1=Twistaroo
TTITLE2=Trackdown Twist
TTITLE3=Potato Mash
TTITLE4=It's Gonna Work Out Fine
TTITLE5=Steel Guitar Rag
TTITLE6=Doublemint
TTITLE7=The Rooster
TTITLE8=Prancing
TTITLE9=Katanga
TTITLE10=The Groove
TTITLE11=Going Home
EXTD=
EXTT0=
EXTT1=
EXTT2=
EXTT3=
EXTT4=
EXTT5=
EXTT6=
EXTT7=
EXTT8=
EXTT9=
EXTT10=
EXTT11=
PLAYORDER=
